<svg width="128" height="128" viewBox="0 0 128 128" fill="none" xmlns="http://www.w3.org/2000/svg">
  <defs>
    <linearGradient id="gradient128" x1="0%" y1="0%" x2="100%" y2="100%">
      <stop offset="0%" style="stop-color:#667eea;stop-opacity:1" />
      <stop offset="100%" style="stop-color:#764ba2;stop-opacity:1" />
    </linearGradient>
    <linearGradient id="shieldGradient" x1="0%" y1="0%" x2="100%" y2="100%">
      <stop offset="0%" style="stop-color:#ffffff;stop-opacity:1" />
      <stop offset="100%" style="stop-color:#f8f9fa;stop-opacity:1" />
    </linearGradient>
    <filter id="shadow128" x="-20%" y="-20%" width="140%" height="140%">
      <feDropShadow dx="2" dy="4" stdDeviation="4" flood-color="rgba(0,0,0,0.25)"/>
    </filter>
    <filter id="innerShadow" x="-50%" y="-50%" width="200%" height="200%">
      <feDropShadow dx="1" dy="1" stdDeviation="1" flood-color="rgba(102,126,234,0.3)"/>
    </filter>
  </defs>
  
  <!-- Background circle with gradient and shadow -->
  <circle cx="64" cy="64" r="64" fill="url(#gradient128)" filter="url(#shadow128)"/>
  
  <!-- Shield shape with gradient -->
  <path d="M64 20L44 30V52C44 72 52 88 64 96C76 88 84 72 84 52V30L64 20Z" 
        fill="url(#shieldGradient)" filter="url(#innerShadow)"/>
  
  <!-- Shield border -->
  <path d="M64 20L44 30V52C44 72 52 88 64 96C76 88 84 72 84 52V30L64 20Z" 
        stroke="url(#gradient128)" stroke-width="1" fill="none" opacity="0.3"/>
  
  <!-- Upload arrow with enhanced styling -->
  <path d="M64 38V70M54 48L64 38L74 48" 
        stroke="url(#gradient128)" stroke-width="6" stroke-linecap="round" stroke-linejoin="round"/>
  
  <!-- Additional upload elements -->
  <path d="M64 38V70M54 48L64 38L74 48" 
        stroke="white" stroke-width="2" stroke-linecap="round" stroke-linejoin="round"/>
  
  <!-- Data stream visualization -->
  <g opacity="0.7">
    <circle cx="48" cy="58" r="2" fill="url(#gradient128)">
      <animate attributeName="opacity" values="0.3;1;0.3" dur="2s" repeatCount="indefinite"/>
    </circle>
    <circle cx="52" cy="62" r="1.5" fill="url(#gradient128)">
      <animate attributeName="opacity" values="0.3;1;0.3" dur="2s" begin="0.3s" repeatCount="indefinite"/>
    </circle>
    <circle cx="56" cy="66" r="1" fill="url(#gradient128)">
      <animate attributeName="opacity" values="0.3;1;0.3" dur="2s" begin="0.6s" repeatCount="indefinite"/>
    </circle>
    
    <circle cx="80" cy="58" r="2" fill="url(#gradient128)">
      <animate attributeName="opacity" values="0.3;1;0.3" dur="2s" begin="0.2s" repeatCount="indefinite"/>
    </circle>
    <circle cx="76" cy="62" r="1.5" fill="url(#gradient128)">
      <animate attributeName="opacity" values="0.3;1;0.3" dur="2s" begin="0.5s" repeatCount="indefinite"/>
    </circle>
    <circle cx="72" cy="66" r="1" fill="url(#gradient128)">
      <animate attributeName="opacity" values="0.3;1;0.3" dur="2s" begin="0.8s" repeatCount="indefinite"/>
    </circle>
  </g>
  
  <!-- Lock element -->
  <g transform="translate(60, 72)">
    <rect x="0" y="4" width="8" height="8" rx="2" fill="url(#gradient128)"/>
    <path d="M2 4V2C2 0.9 2.9 0 4 0C5.1 0 6 0.9 6 2V4" 
          stroke="url(#gradient128)" stroke-width="1.5" fill="none"/>
    <circle cx="4" cy="8" r="1" fill="white"/>
  </g>
  
  <!-- Security badge -->
  <g transform="translate(85, 25)">
    <circle cx="0" cy="0" r="8" fill="#28a745"/>
    <path d="M-3 0L-1 2L3 -2" stroke="white" stroke-width="2" stroke-linecap="round" stroke-linejoin="round"/>
  </g>
</svg>
